<svg width="163" height="70" viewBox="0 0 163 70" fill="none" xmlns="http://www.w3.org/2000/svg">
<g clip-path="url(#clip0_8205_59582)">
<path d="M19.1901 18.0666C28.762 17.1735 37.2434 24.2146 38.1267 33.7874C39.01 43.3606 31.9604 51.8343 22.3867 52.7078C12.8267 53.5803 4.36742 46.543 3.48535 36.9837C2.60338 27.4249 9.63198 18.9584 19.1901 18.0666ZM22.661 50.8668C31.2063 49.8407 37.3001 42.0787 36.269 33.5345C35.2379 24.9898 27.4724 18.9008 18.9284 19.9374C10.3921 20.9729 4.30974 28.7299 5.3399 37.2665C6.37015 45.8044 14.1232 51.891 22.661 50.8668Z" fill="#080C09"/>
<path d="M27.6147 26.3342L29.617 26.3206C29.6558 32.0993 29.6586 37.8784 29.6256 43.6571L27.5552 43.6831L27.5522 32.8252L27.5427 29.852C26.3863 32.0466 25.0733 34.1564 23.8225 36.2979C23.0297 37.6551 22.2933 39.2123 21.3122 40.4328C21.0781 40.5184 20.8242 40.5249 20.5804 40.4691C20.5007 40.4505 20.3338 40.3882 20.2732 40.3398C19.744 39.9175 14.7677 31.1755 13.9729 29.8498C14.1769 31.4219 14.0488 33.1372 14.0479 34.7241L14.0419 43.6403L11.9248 43.6478C11.9904 37.8784 11.8869 32.1049 11.9422 26.3341L14.2475 26.3461C15.2727 28.179 16.3723 29.9736 17.4354 31.7848C18.5651 33.7097 19.6651 35.6579 20.8653 37.5398C22.0864 35.3099 23.4518 33.1488 24.7644 30.9706C25.6941 29.4279 26.573 27.8032 27.6147 26.3342Z" fill="#080C09"/>
<path d="M133.622 30.4519C134.031 30.4244 134.45 30.4136 134.86 30.4209C136.386 30.4482 137.945 31.2644 138.99 32.3464C140.292 33.6947 140.897 35.5752 140.853 37.4302C140.809 39.3176 140.102 41.1121 138.713 42.407C137.481 43.554 135.903 44.168 134.216 44.1047C132.284 44.0321 131.003 43.2182 129.707 41.8349C129.657 42.6265 129.672 43.4275 129.664 44.221C129.673 45.7968 129.671 47.3727 129.658 48.9494C128.923 49.022 128.182 49.0155 127.448 48.929C127.568 46.4889 127.462 43.9903 127.463 41.5437C127.463 37.9046 127.521 34.2557 127.439 30.6177L129.625 30.6092C129.582 31.421 129.592 32.2411 129.58 33.0543C130.765 31.5764 131.753 30.8638 133.622 30.4519ZM134.569 42.1521C135.928 41.8972 136.981 41.3428 137.779 40.1697C138.559 39.0023 138.839 37.5706 138.555 36.1957C138.312 34.9704 137.586 33.8123 136.519 33.1427C135.679 32.6156 134.77 32.4708 133.8 32.4982C132.453 32.7529 131.361 33.2326 130.553 34.4068C129.792 35.5129 129.465 37.0878 129.722 38.4032C129.966 39.6665 130.714 40.7753 131.796 41.4712C132.659 42.0135 133.569 42.1698 134.569 42.1521Z" fill="#080C09"/>
<path d="M92.8299 24.9692C93.1862 25.3354 93.2969 26.3015 93.509 26.819C91.215 27.7818 87.8893 27.5838 86.0447 29.3459C84.9414 30.4 84.6781 31.8576 84.6549 33.3102C85.6419 32.0911 86.7237 31.1033 88.3424 30.8328C89.9778 30.5593 91.7108 30.8757 93.0522 31.8739C94.4932 32.9466 95.2951 34.5016 95.536 36.2629C95.8123 38.2872 95.3081 40.196 94.0662 41.8128C93.1667 42.811 92.1201 43.5487 90.802 43.8715C89.1331 44.2808 87.2279 44.0687 85.7572 43.1561C84.08 42.1142 83.1144 40.3951 82.6958 38.5039C82.0706 35.6778 82.1934 31.4542 83.8223 28.9457C85.2586 26.7327 87.4279 26.2946 89.8382 25.7213C90.8392 25.4833 91.8262 25.1904 92.8299 24.9692ZM89.0159 42.1645C90.4364 41.9542 91.4931 41.6137 92.3759 40.3933C93.242 39.197 93.522 37.6862 93.2532 36.2481C93.0364 35.0875 92.4252 34.026 91.4289 33.3692C90.8187 32.9658 90.1108 32.7346 89.3796 32.7C87.9972 32.8545 86.8605 33.1408 85.9405 34.2809C85.0772 35.3513 84.7079 36.7969 84.8986 38.1532C85.0725 39.3905 85.7488 40.5812 86.7647 41.3189C87.4521 41.8175 88.1898 42.0361 89.0159 42.1645Z" fill="#080C09"/>
<path d="M61.7475 25.8497C62.5551 25.7687 63.3953 25.8074 64.2075 25.8018C64.0979 31.7478 64.2287 37.7113 64.1945 43.6603L62.0532 43.6389L62.0565 33.1201C62.0507 31.915 62.0256 30.7074 62.0994 29.5039C60.126 33.1486 58.3455 36.9531 56.1841 40.4872L54.7927 40.4797C52.6637 36.9894 50.892 33.2284 48.9233 29.6418C49.0003 31.2866 48.9482 32.9568 48.9493 34.6041L48.9541 43.6612C48.2402 43.6426 47.5291 43.6891 46.8143 43.6556L46.8153 32.8207C46.8168 30.4916 46.7712 28.148 46.8989 25.8221L49.2813 25.8234C49.9585 26.9845 50.5341 28.2287 51.1494 29.4248C52.5767 32.1995 53.9896 35.0043 55.5294 37.7178C57.7926 33.8805 59.584 29.7472 61.7475 25.8497Z" fill="#080C09"/>
<path d="M72.7607 30.4563C73.0875 30.4388 73.4146 30.4264 73.7417 30.4192C75.456 30.3911 77.1643 30.8588 78.4002 32.1011C80.0536 33.7629 80.2181 35.8571 80.2184 38.0702C76.6499 38.1158 73.0764 38.0674 69.5071 38.0832C69.6172 38.6721 69.728 39.2358 70.0082 39.7735C70.566 40.8488 71.5342 41.6535 72.6934 42.0052C74.0809 42.4256 75.4765 42.1791 76.7246 41.4907C77.1433 41.2061 77.5262 40.873 77.9159 40.5512C78.476 40.8712 79.0429 41.1382 79.635 41.394C78.7543 42.5819 77.6191 43.448 76.1823 43.8415C74.3428 44.3447 72.1007 44.1475 70.4436 43.1726C68.9907 42.3159 67.9482 40.9056 67.5557 39.2656C67.0662 37.2934 67.3396 35.1364 68.4097 33.4017C69.4412 31.7297 70.8886 30.9034 72.7607 30.4563ZM69.53 36.4032C71.2976 36.3892 73.0652 36.3836 74.8329 36.3883L78.1369 36.3902C77.8147 35.0342 77.4918 33.7773 76.23 32.9835C75.3069 32.4026 74.1874 32.3142 73.1249 32.4027C71.9775 32.6677 71.0103 33.1899 70.3555 34.2012C69.9122 34.8859 69.7156 35.6218 69.53 36.4032Z" fill="#080C09"/>
<path d="M117.153 30.4525C117.474 30.4365 117.794 30.4258 118.115 30.4204C119.825 30.4019 121.534 30.9092 122.754 32.1567C124.36 33.7989 124.508 35.8945 124.5 38.062C120.947 38.1159 117.385 38.0731 113.83 38.0815C113.877 38.7299 113.99 39.288 114.294 39.8713C114.854 40.9513 115.783 41.6657 116.943 42.0053C118.495 42.4611 119.907 42.1244 121.278 41.3634C121.613 41.1327 121.911 40.8508 122.215 40.5811C122.779 40.8843 123.35 41.1299 123.943 41.3662C123.014 42.5876 121.858 43.4732 120.356 43.8537C118.489 44.3272 116.346 44.1458 114.68 43.1402C113.201 42.2471 112.187 40.7755 111.798 39.0992C111.354 37.1847 111.664 34.9828 112.734 33.3231C113.803 31.6637 115.267 30.8606 117.153 30.4525ZM113.81 36.3987C115.502 36.394 117.196 36.3708 118.888 36.3884L122.474 36.3866C122.102 34.9924 121.712 33.6341 120.364 32.8672C119.528 32.3917 118.511 32.3107 117.567 32.406C116.448 32.5912 115.502 33.0123 114.807 33.9478C114.257 34.6888 114.022 35.5168 113.81 36.3987Z" fill="#080C09"/>
<path d="M154.059 30.6404C156.224 30.5389 158.42 30.6125 160.589 30.6194C160.478 34.9535 160.577 39.3168 160.575 43.6546L158.345 43.6304L158.343 39.1773C157.278 39.1708 155.875 38.9624 154.859 39.2043C154.542 39.2796 154.485 39.4396 154.308 39.6861C153.555 41.0211 152.718 42.3095 151.962 43.6453C151.12 43.6639 150.276 43.6667 149.433 43.6518C150.258 42.1029 151.378 40.1317 152.47 38.7903C152.34 38.7271 152.212 38.6601 152.085 38.5912C151.133 38.0656 150.404 37.22 150.125 36.1596C149.835 35.0541 149.993 33.7923 150.585 32.8107C151.382 31.4864 152.63 30.9772 154.059 30.6404ZM156.346 37.3084C157.004 37.3028 157.676 37.3233 158.333 37.2759C158.324 35.7344 158.328 34.193 158.345 32.6516C157.037 32.6468 155.711 32.6118 154.405 32.6834C153.581 32.9415 152.937 33.2201 152.493 34.0144C152.198 34.5423 152.119 35.239 152.318 35.8126C152.51 36.3679 152.956 36.7577 153.481 36.9949C154.366 37.3949 155.397 37.3168 156.346 37.3084Z" fill="#080C09"/>
<path d="M100.064 30.7599C102.889 30.6581 105.737 30.7241 108.564 30.7189L108.551 43.6528C107.847 43.6426 107.14 43.6128 106.441 43.7087L106.431 32.7526L105.233 32.8009C104.163 32.7482 103.07 32.8186 101.998 32.8437C101.969 35.4508 101.958 40.8556 100.132 42.7849C99.2215 43.7468 98.1926 43.8454 96.9489 43.8556C96.9396 43.1756 96.9033 42.504 96.854 41.8258C97.1787 41.7961 97.5229 41.7737 97.8391 41.6937C99.8048 41.1979 99.8392 34.7028 99.8885 33.0652C99.908 32.427 99.7666 31.2795 100.064 30.7599Z" fill="#080C09"/>
<path d="M145.872 30.6642L146.161 30.6472C146.195 30.6942 146.245 30.7334 146.266 30.7882C146.363 31.0426 146.263 42.3411 146.264 43.6472L144.37 43.6602L144.231 43.6323C143.927 43.0844 144.232 32.3176 144.137 30.69C144.715 30.6972 145.294 30.6777 145.872 30.6642Z" fill="#080C09"/>
<path d="M144.097 25.7865L146.276 25.78C146.253 26.5532 146.27 27.3269 146.281 28.1002L144.039 28.1171C144.071 27.3406 144.091 26.5637 144.097 25.7865Z" fill="#080C09"/>
</g>
<defs>
<clipPath id="clip0_8205_59582">
<rect width="157.178" height="34.7907" fill="white" transform="translate(3.41064 17.9902)"/>
</clipPath>
</defs>
</svg>
